<svg xmlns="http://www.w3.org/2000/svg" viewBox="0 0 64 64" width="64" height="64">
  <!-- Tux-Favicon: freundlicher Pinguin im Dracula-Look -->
  <rect width="64" height="64" rx="14" fill="#282a36"/>
  <!-- Füße -->
  <path d="M22 52c-1-4 3-6 5-6l2 5z" fill="#ffb86c"/>
  <path d="M42 52c1-4-3-6-5-6l-2 5z" fill="#ffb86c"/>
  <!-- Körper (schwarz) -->
  <path d="M32 9c-9 0-15 7-15 18 0 6-3 9-3 14 0 6 8 12 18 12s18-6 18-12c0-5-3-8-3-14 0-11-6-18-15-18z" fill="#1a1b23"/>
  <!-- Bauch (weiß) -->
  <ellipse cx="32" cy="38" rx="10" ry="14" fill="#f8f8f2"/>
  <!-- Augen -->
  <ellipse cx="27" cy="22" rx="4" ry="5" fill="#f8f8f2"/>
  <ellipse cx="37" cy="22" rx="4" ry="5" fill="#f8f8f2"/>
  <circle cx="28" cy="23" r="1.9" fill="#1a1b23"/>
  <circle cx="36" cy="23" r="1.9" fill="#1a1b23"/>
  <!-- Schnabel -->
  <path d="M32 24c-4 0-6 2-6 4 0 2 3 3 6 3s6-1 6-3c0-2-2-4-6-4z" fill="#ffb86c"/>
  <path d="M28 27h8" stroke="#e5a15c" stroke-width="1.2"/>
</svg>
