<?xml version="1.0" encoding="UTF-8"?><svg id="uuid-c186c67d-935f-4581-bc0e-82e7df422c16" xmlns="http://www.w3.org/2000/svg" width="555" height="280" viewBox="0 0 555 280"><defs><style>.uuid-bb3e5915-f572-4c4b-9079-a693db70c6d0{fill:none;stroke:#c7c7c7;stroke-miterlimit:10;}.uuid-7094ae9c-af9a-44dd-99b5-060a290ccf42{fill:#f2f2f2;}.uuid-43cd8838-8b73-4a0b-9221-cc8267b02937{fill:#e00;}</style></defs><path class="uuid-7094ae9c-af9a-44dd-99b5-060a290ccf42" d="M45,0h495c8.27873,0,15,6.72127,15,15v220c0,24.83618-20.16382,45-45,45H15c-8.27873,0-15-6.72127-15-15V45C0,20.16382,20.16382,0,45,0Z"/><path class="uuid-bb3e5915-f572-4c4b-9079-a693db70c6d0" d="M89.1174,72.7094v134.58118h376.76538V72.7094H89.1174ZM436.26144,177.36541H118.73849v-74.73077h317.52295v74.73077Z"/><path class="uuid-bb3e5915-f572-4c4b-9079-a693db70c6d0" d="M299.30172,193.13841c0-9.1701-6.16528-15.7713-14.57251-15.7713-8.18774-.12354-14.92529,6.41376-15.04883,14.60138-.00195.11664-.0022.23334-.00122.34998l-.01025.01556c0,8.40717,6.87622,14.95654,15.71411,14.95654,4.85742,0,8.40723-1.31299,12.06592-4.36969l-5.84351-5.18964c-1.36499,1.42194-3.38354,2.18481-5.78125,2.18481-3.08618.08691-5.90771-1.73425-7.09937-4.58246h20.5769v-2.19519ZM278.56393,189.132c.87183-2.86987,3.05664-4.58246,5.98364-4.58246,2.78149,0,5.12744,1.80084,6.05615,4.58246h-12.03979Z"/><path class="uuid-bb3e5915-f572-4c4b-9079-a693db70c6d0" d="M299.30172,88.48246c0-9.1701-6.16528-15.7713-14.57251-15.7713-8.18774-.12354-14.92529,6.41376-15.04883,14.60138-.00195.11664-.0022.23334-.00122.34998l-.01025.01556c0,8.40717,6.87622,14.95654,15.71411,14.95654,4.85742,0,8.40723-1.31299,12.06592-4.36969l-5.84351-5.18964c-1.36499,1.42194-3.38354,2.18481-5.78125,2.18481-3.08618.08691-5.90771-1.73425-7.09937-4.58246h20.5769v-2.19519ZM278.56393,84.47605c.87183-2.86987,3.05664-4.58246,5.98364-4.58246,2.78149,0,5.12744,1.80084,6.05615,4.58246h-12.03979Z"/><path class="uuid-bb3e5915-f572-4c4b-9079-a693db70c6d0" d="M118.73863,145.73455c0-9.1701-6.16528-15.7713-14.57251-15.7713-8.18774-.12354-14.92529,6.41376-15.04883,14.60138-.00195.11664-.0022.23334-.00122.34998l-.01025.01556c0,8.40717,6.87622,14.95654,15.71411,14.95654,4.85742,0,8.40723-1.31299,12.06592-4.36969l-5.84351-5.18964c-1.36499,1.42194-3.38354,2.18481-5.78125,2.18481-3.08618.08691-5.90771-1.73425-7.09937-4.58246h20.5769v-2.19519ZM98.00084,141.72814c.87183-2.86987,3.05664-4.58246,5.98364-4.58246,2.78149,0,5.12744,1.80084,6.05615,4.58246h-12.03979Z"/><g id="uuid-ab0742c3-9290-4be4-b8e8-cb16974d272d"><path class="uuid-43cd8838-8b73-4a0b-9221-cc8267b02937" d="M184.63145,145.70341c6.49223,0,15.88548-1.33893,15.88548-9.0611.01941-.59598-.03462-1.19208-.16088-1.77485l-3.86628-16.79366c-.89262-3.69502-1.67625-5.37127-8.1633-8.6148-5.03395-2.57406-15.99965-6.82437-19.24318-6.82437-3.02037,0-3.89742,3.89223-7.49903,3.89223-3.46668,0-6.04074-2.9062-9.28426-2.9062-3.11378,0-5.14293,2.12256-6.7102,6.48705,0,0-4.36448,12.30982-4.92496,14.09505-.08908.32783-.12759.66734-.11417,1.00679,0,4.78485,18.83838,20.47311,44.08077,20.47311M201.51334,139.77685c.8978,4.25031.8978,4.69662.8978,5.2571,0,7.26549-8.16849,11.29784-18.90585,11.29784-24.26674.01557-45.52349-14.20404-45.52349-23.60247-.0014-1.30822.26529-2.60285.78363-3.804-8.72897.43593-20.02681,1.99282-20.02681,11.9673,0,16.33697,38.7095,36.47276,69.35949,36.47276,23.49867,0,29.42524-10.62837,29.42524-19.02002,0-6.60122-5.7086-14.09505-15.99965-18.56852"/><path d="M201.51334,139.77685c.8978,4.25031.8978,4.69662.8978,5.2571,0,7.26549-8.16849,11.29784-18.90585,11.29784-24.26674.01557-45.52349-14.20404-45.52349-23.60247-.0014-1.30822.26529-2.60285.78363-3.804l1.89941-4.70181c-.087.32115-.12549.6535-.11417.98603,0,4.78485,18.83838,20.47311,44.08077,20.47311,6.49223,0,15.88548-1.33893,15.88548-9.0611.01941-.59598-.03462-1.19208-.16088-1.77485l1.15729,4.93015Z"/><path d="M419.34313,150.53496c0,6.17048,3.7106,9.17009,10.47788,9.17009,2.08355-.05187,4.15412-.34443,6.17049-.87186v-7.15651c-1.28876.40842-2.63375.61157-3.98564.602-2.78683,0-3.81956-.87186-3.81956-3.49263v-10.9657h8.07507v-7.36929h-8.07507v-9.34135l-8.82238,1.90979v7.43156h-5.85912v7.36929h5.83834v12.71461ZM391.83806,150.70103c0-1.90979,1.91498-2.83873,4.80561-2.83873,1.76686.01027,3.52629.22977,5.24152.6539v3.71059c-1.69034.92325-3.59078,1.39344-5.51659,1.36487-2.83355,0-4.53054-1.08982-4.53054-2.89063M394.53668,159.81403c3.11378,0,5.62558-.6539,7.97127-2.23673v1.74891h8.72897v-18.50625c0-7.03715-4.74334-10.89824-12.65753-10.89824-4.42158,0-8.79125,1.03793-13.49305,3.16568l3.16567,6.49742c3.38365-1.42196,6.22756-2.29382,8.73417-2.29382,3.63275,0,5.51139,1.41677,5.51139,4.31259v1.41677c-2.13879-.55364-4.34005-.82924-6.54932-.81996-7.42637,0-11.89983,3.11378-11.89983,8.68226,0,5.07546,4.03755,8.94693,10.47788,8.94693M346.55329,159.34177h9.38805v-14.9721h15.71941v14.95653h9.41401v-38.2061h-9.37768v14.68148h-15.7194v-14.68148h-9.38807l-.03633,38.22167ZM310.81746,144.86269c0-4.15171,3.27466-7.31739,7.58725-7.31739,2.24367-.04549,4.42234.75483,6.10302,2.24192v10.09385c-1.64465,1.55393-3.84153,2.3871-6.10302,2.31458-4.25551,0-7.58725-3.16568-7.58725-7.3122M324.62707,159.34697h8.73415v-40.13665l-8.82238,1.90979v10.86191c-2.24589-1.27323-4.7877-1.93196-7.36929-1.90979-8.40202,0-15.00844,6.49223-15.00844,14.79046-.10043,8.09627,6.38147,14.74101,14.47775,14.84144.08693.00108.17386.00138.26081.00091,2.78411.01328,5.49934-.86513,7.74812-2.5066l-.02073,2.14852ZM284.54752,137.1457c2.78164,0,5.12736,1.8008,6.05631,4.58245h-12.03996c.87186-2.86987,3.05669-4.58245,5.98365-4.58245M269.66882,144.93015c0,8.40721,6.87627,14.95653,15.71422,14.95653,4.85749,0,8.40722-1.31298,12.0659-4.36967l-5.84354-5.18964c-1.36488,1.42196-3.38364,2.18484-5.78126,2.18484-3.08621.08692-5.90773-1.73428-7.09942-4.58245h20.57691v-2.19521c0-9.17009-6.16529-15.7713-14.57249-15.7713-8.18768-.12354-14.92526,6.41373-15.04879,14.60141-.00177.11664-.00215.23329-.00116.34993M254.44763,129.14328c3.11378,0,4.85749,1.96168,4.85749,4.31259s-1.74371,4.31258-4.85749,4.31258h-9.28426v-8.62517h9.28426ZM235.76494,159.32621h9.38805v-13.91861h7.14612l7.20841,13.9186h10.50901l-8.40722-15.28348c4.37109-1.7777,7.22246-6.03421,7.20322-10.75293,0-6.87627-5.40241-12.1697-13.49305-12.1697h-19.55455v38.20611Z"/></g></svg>